<?xml version="1.0" encoding="iso-8859-1"?>
<!-- Uploaded to: SVG Repo, www.svgrepo.com, Generator: SVG Repo Mixer Tools -->
<svg version="1.1" id="Layer_1" xmlns="http://www.w3.org/2000/svg" xmlns:xlink="http://www.w3.org/1999/xlink" 
	 viewBox="0 0 480 480" xml:space="preserve">
<polygon style="fill:#FCB641;" points="119.496,456 136.496,456 218.664,321.544 203.816,176 52.184,176 37.336,321.544 "/>
<rect x="40" y="128" style="fill:#EB805B;" width="176" height="48"/>
<rect x="56" y="8" style="fill:#E66032;" width="144" height="120"/>
<circle style="fill:#FFFFFF;" cx="128" cy="264.96" r="23"/>
<rect x="399.982" y="224.031" transform="matrix(-0.7071 0.7071 -0.7071 -0.7071 889.509 119.6142)" style="fill:#FCB641;" width="40" height="40"/>
<path style="fill:#4D4D4D;" d="M420,280.288c-2.128,0-4.16-0.84-5.656-2.344l-28.28-28.288c-3.128-3.128-3.128-8.184,0-11.312
	l28.28-28.288c3-3,8.312-3,11.312,0l28.28,28.288c3.128,3.128,3.128,8.184,0,11.312l-28.28,28.288
	C424.16,279.44,422.128,280.288,420,280.288z M403.032,244L420,260.968L436.968,244L420,227.032L403.032,244z"/>
<path style="fill:#FEF0D9;" d="M8,456L8,456c0-8.84,7.16-16,16-16l0,0c8.84,0,16,7.16,16,16l0,0c0,8.84-7.16,16-16,16l0,0
	C15.16,472,8,464.84,8,456z"/>
<g>
	<path style="fill:#4D4D4D;" d="M24,480c-13.232,0-24-10.768-24-24s10.768-24,24-24s24,10.768,24,24S37.232,480,24,480z M24,448
		c-4.416,0-8,3.592-8,8s3.584,8,8,8s8-3.592,8-8S28.416,448,24,448z"/>
	<path style="fill:#4D4D4D;" d="M306.728,448C377.384,417.656,427,347.4,427,265.752c0-4.416-3.576-8-8-8s-8,3.584-8,8
		C411,366.248,329.248,448,228.76,448H40v16h400v-16H306.728z"/>
</g>
<path style="fill:#FEF0D9;" d="M440,456L440,456c0-8.84,7.16-16,16-16l0,0c8.84,0,16,7.16,16,16l0,0c0,8.84-7.16,16-16,16l0,0
	C447.16,472,440,464.84,440,456z"/>
<path style="fill:#4D4D4D;" d="M456,480c-13.232,0-24-10.768-24-24s10.768-24,24-24s24,10.768,24,24S469.232,480,456,480z M456,448
	c-4.416,0-8,3.592-8,8s3.584,8,8,8s8-3.592,8-8S460.416,448,456,448z"/>
<path style="fill:#FEF0D9;" d="M224,456L224,456c0-8.84,7.16-16,16-16l0,0c8.84,0,16,7.16,16,16l0,0c0,8.84-7.16,16-16,16l0,0
	C231.16,472,224,464.84,224,456z"/>
<path style="fill:#4D4D4D;" d="M240,480c-13.232,0-24-10.768-24-24s10.768-24,24-24s24,10.768,24,24S253.232,480,240,480z M240,448
	c-4.416,0-8,3.592-8,8s3.584,8,8,8c4.416,0,8-3.592,8-8S244.416,448,240,448z"/>
<path style="fill:#FCB641;" d="M392,32h-16V16c0-4.416-3.576-8-8-8s-8,3.584-8,8v16h-16c-4.424,0-8,3.584-8,8s3.576,8,8,8h16v16
	c0,4.416,3.576,8,8,8s8-3.584,8-8V48h16c4.424,0,8-3.584,8-8S396.424,32,392,32z"/>
<path style="fill:#ED7765;" d="M304,224c-13.232,0-24-10.768-24-24s10.768-24,24-24s24,10.768,24,24S317.232,224,304,224z M304,192
	c-4.416,0-8,3.592-8,8s3.584,8,8,8s8-3.592,8-8S308.416,192,304,192z"/>
<path style="fill:#4D4D4D;" d="M212.672,184H216c4.424,0,8-3.584,8-8v-48c0-4.416-3.576-8-8-8h-8V8c0-4.416-3.576-8-8-8H56
	c-4.424,0-8,3.584-8,8v112h-8c-4.424,0-8,3.584-8,8v48c0,4.416,3.576,8,8,8h3.328L29.376,320.728
	c-0.168,1.744,0.216,3.496,1.136,4.984l82.168,134.464c1.448,2.376,4.032,3.824,6.824,3.824h17c2.792,0,5.376-1.448,6.832-3.832
	l82.168-134.464c0.912-1.496,1.304-3.24,1.136-4.984L212.672,184z M64,16h128v104h-56V72h16c4.424,0,8-3.584,8-8s-3.576-8-8-8h-48
	c-4.424,0-8,3.584-8,8s3.576,8,8,8h16v48H64V16z M48,136h8h144h8v32h-4.184H52.184H48V136z M128,250c8.272,0,15,6.728,15,15
	s-6.728,15-15,15s-15-6.728-15-15S119.728,250,128,250z M136,441.48V294.816c13.2-3.552,23-15.512,23-29.824s-9.8-26.264-23-29.816
	V208c0-4.416-3.576-8-8-8s-8,3.584-8,8v27.176c-13.2,3.552-23,15.512-23,29.824s9.8,26.264,23,29.816V441.48L45.568,319.664
	L59.416,184h137.168l13.84,135.664L136,441.48z"/>
</svg>